<svg width="80" height="84" viewBox="0 0 80 84" fill="none" xmlns="http://www.w3.org/2000/svg">
<g filter="url(#filter0_d_22_217)">
<path d="M46.6666 6.66675H19.9999C18.2318 6.66675 16.5361 7.36913 15.2859 8.61937C14.0356 9.86961 13.3333 11.5653 13.3333 13.3334V66.6668C13.3333 68.4349 14.0356 70.1306 15.2859 71.3808C16.5361 72.631 18.2318 73.3334 19.9999 73.3334H59.9999C61.768 73.3334 63.4637 72.631 64.714 71.3808C65.9642 70.1306 66.6666 68.4349 66.6666 66.6668V26.6667M46.6666 6.66675L66.6666 26.6667M46.6666 6.66675V26.6667H66.6666M53.3333 43.3334H26.6666M53.3333 56.6668H26.6666M33.3333 30.0001H26.6666" stroke="#1E1E1E" stroke-width="4" stroke-linecap="round" stroke-linejoin="round"/>
</g>
</svg>
